<?xml version="1.0" encoding="UTF-8"?>
<svg id="Layer_1" data-name="Layer 1" xmlns="http://www.w3.org/2000/svg" viewBox="0 0 755.64 755.64">
  <defs>
    <style>
      .cls-1 {
        fill: #f9f9fa;
        stroke-width: 0px;
      }
    </style>
  </defs>
  <path class="cls-1" d="M158.18,164.48c36.92-39.81,76.73-69.49,119.44-89.03,28.23-13.75,56.46-23.16,84.69-27.51,27.51-4.34,59.36-5.79,94.11-2.9,26.79,2.9,49.22,6.52,68.77,10.86,15.92,4.35,34.74,11.58,56.46,20.99-60.08-41.99-130.3-62.97-208.47-62.97-95.55,0-178.8,31.85-248.28,95.55-4.35,4.34-8.69,7.96-13.03,12.3C40.19,193.44,4,281.03,4,382.37c0,47.05,7.96,91.2,23.89,131.74-7.96-62.97,2.17-128.12,29.68-196.89,20.99-52.11,51.39-99.89,91.93-143.33,2.89-3.62,5.79-6.51,8.68-9.41Z"/>
  <path class="cls-1" d="M714.11,529.31c18.82-45.61,28.95-94.1,28.95-146.95,0-37.64-5.8-73.12-15.2-106.41-5.07,20.99-18.1,44.15-39.81,70.21-23.88,28.23-52.12,52.12-83.24,71.66-34.03,21-78.18,42.71-134.64,64.43-55.73,20.98-120.16,41.26-192.55,61.53-51.39,13.75-78.18,21.72-78.9,22.43-2.17,1.45.72,10.14,7.96,25.34,7.24,15.92,14.48,28.96,21.72,40.54,14.48,20.27,31.13,37.64,52.12,52.84,15.93,12.31,33.3,21.72,51.39,29.68,71.67,21,138.99,20.26,202.68-4.34,86.86-33.3,146.22-94.1,179.52-180.96Z"/>
  <path class="cls-1" d="M574.4,136.25c-28.95-32.57-65.87-48.49-112.2-48.49-57.91,0-113.64,26.78-165.04,81.07-20.99,21.72-39.09,45.61-54.29,71.66-3.62,5.79-6.51,10.86-10.13,16.65-18.1,34.75-32.57,73.83-41.98,116.54-5.79,24.61-9.41,49.94-10.86,76.73-1.45,26.06,0,47.05,4.34,60.81l2.9,10.86,92.66-25.33c60.8-18.1,111.47-36.93,154.18-57.91,42.7-21.72,77.45-44.88,105.68-70.94,31.12-30.4,52.12-60.08,61.53-90.48,5.07-15.2,7.24-31.12,7.24-47.77v-.73c-1.45-14.47-3.62-29.67-9.41-45.6-3.62-12.3-7.24-20.99-10.14-26.78-3.62-5.79-7.96-11.58-14.48-20.27Z"/>
  <g>
    <path class="cls-1" d="M158.18,164.48c36.92-39.81,76.73-69.49,119.44-89.03,28.23-13.75,56.46-23.16,84.69-27.51,27.51-4.34,59.36-5.79,94.11-2.9,26.79,2.9,49.22,6.52,68.77,10.86,15.92,4.35,34.74,11.58,56.46,20.99-60.08-41.99-130.3-62.97-208.47-62.97-95.55,0-178.8,31.85-248.28,95.55l33.29,55.01Z"/>
    <path class="cls-1" d="M574.4,136.25c-28.95-32.57-65.87-48.49-112.2-48.49-57.91,0-113.64,26.78-165.04,81.07-20.99,21.72-39.09,45.61-54.29,71.66-3.62,5.79-6.51,10.86-10.13,16.65l375.68-27.51v-.73c-1.45-14.47-3.62-29.67-9.41-45.6-3.62-12.3-7.24-20.99-10.14-26.78-3.62-5.79-7.96-11.58-14.48-20.27Z"/>
  </g>
</svg>