<?xml version="1.0" encoding="UTF-8"?>
<svg id="Layer_1" data-name="Layer 1" xmlns="http://www.w3.org/2000/svg" viewBox="0 0 2022.41 421.4">
  <defs>
    <style>
      .cls-1 {
        fill: #f9f9fa;
        stroke-width: 0px;
      }
    </style>
  </defs>
  <g>
    <path class="cls-1" d="M1996.13,278.13v-18.25h-115.03v-42.83h109.87v-14.67h-109.87v-41.25h115.03v-17.85h-139.22v134.86h139.22Z"/>
    <path class="cls-1" d="M517.86,196.81v-21.42h103.92v-30.54h-144.38v131.68h146.76v-31.73h-106.3v-21.02h98.76v-26.97h-98.76Z"/>
    <path class="cls-1" d="M929.57,242.83l-51.17-97.97h-44.42l71,131.68h49.58l71.4-131.68h-44.03l-52.35,97.97Z"/>
    <path class="cls-1" d="M780.83,240.44l-76.15-95.59h-62.67v131.68h40.46v-95.59h.4l76.16,95.59h62.27v-131.68h-40.06v95.59h-.4Z"/>
    <path class="cls-1" d="M1077.91,144.86h-40.46v131.68h40.46v-131.68Z"/>
    <path class="cls-1" d="M1258.78,192.45v-8.73c0-5.55-.4-10.71-1.19-15.87-1.58-4.76-3.56-8.73-6.74-12.29-2.77-3.57-6.74-5.95-11.9-7.94-5.15-1.98-11.89-2.77-19.83-2.77h-121.76v131.68h40.45v-34.11h63.47c6.75,0,11.11,1.59,13.09,3.97,2.38,2.77,3.57,7.53,3.57,14.28v15.86h40.86v-22.21c0-5.55-.79-9.91-1.98-13.88-1.19-3.17-2.77-5.95-4.76-8.33-1.98-1.98-4.36-3.57-7.15-4.76-2.76-.79-5.55-1.59-8.72-2.38v-.4c4.75-.79,8.72-2.38,11.9-3.97,2.77-1.98,5.15-4.37,6.74-7.54,1.98-2.38,2.77-5.55,3.18-8.73.79-3.57.79-7.54.79-11.9ZM1219.91,195.62c0,5.16-1.19,8.73-3.57,10.71-2.38,2.38-5.95,3.17-11.5,3.17h-67.04v-32.13h63.08c6.34,0,11.5,1.19,14.27,2.78,3.18,1.59,4.76,5.55,4.76,11.1v4.36Z"/>
    <path class="cls-1" d="M1453.13,167.46c-2.77-6.34-6.74-11.1-11.89-14.67-4.76-3.57-10.71-5.95-17.85-7.14-7.14-1.58-15.47-2.38-24.59-2.38h-64.65c-9.12,0-17.45.79-24.59,2.38-7.15,1.19-13.1,3.57-18.25,7.14-5.16,3.57-9.12,8.33-11.5,14.67-2.78,5.95-3.97,13.88-3.97,23.4v39.67c0,9.52,1.19,17.45,3.97,23.4,2.37,6.35,6.34,11.11,11.5,14.68,5.15,3.57,11.1,5.95,18.25,7.14,7.14,1.19,15.46,2.39,24.59,2.39h64.65c9.12,0,17.45-1.19,24.59-2.39,7.14-1.19,13.09-3.56,17.85-7.14,5.15-3.56,9.12-8.33,11.89-14.68,2.78-5.95,3.97-13.88,3.97-23.4v-39.67c0-9.52-1.19-17.45-3.97-23.4ZM1415.45,203.56v14.28c0,4.76-.4,8.73-.79,12.3-.8,3.17-1.98,5.95-3.58,7.93-1.59,2.38-4.36,3.97-7.54,4.76-2.77,1.19-6.74,1.59-11.11,1.59h-52.35c-4.76,0-8.33-.4-11.11-1.59-3.17-.8-5.55-2.38-7.53-4.76-1.2-1.98-2.39-4.76-3.18-7.93-.79-3.57-1.19-7.54-1.19-12.3v-14.28c0-4.36.4-7.93,1.19-10.71.8-3.57,1.98-5.95,3.97-8.33,1.59-2.78,3.97-4.36,7.15-5.55,2.77-.79,6.34-1.59,10.71-1.59.79-.39,1.98-.39,2.77-.39h47.2c5.55,0,9.52.79,13.09,1.98,3.17,1.19,5.55,2.78,7.54,5.55,1.98,2.38,2.77,4.76,3.97,8.33.39,2.77.79,6.34.79,10.71Z"/>
    <path class="cls-1" d="M1500.73,257.5v-114.23h-24.59v134.86h134.86v-20.63h-110.27Z"/>
    <path class="cls-1" d="M1655.41,278.13v-134.86h-24.19v134.86h24.19Z"/>
    <path class="cls-1" d="M1676.45,163.1h70.2v115.03h24.59v-115.03h69.81v-19.83h-164.6v19.83Z"/>
  </g>
  <g>
    <path class="cls-1" d="M102.28,95.95c20.23-21.81,42.04-38.08,65.45-48.78,15.47-7.54,30.94-12.69,46.41-15.07,15.07-2.38,32.53-3.17,51.57-1.59,14.68,1.59,26.97,3.57,37.68,5.95,8.73,2.38,19.04,6.35,30.94,11.5-32.92-23.01-71.4-34.51-114.23-34.51-52.36,0-97.97,17.45-136.05,52.36-2.38,2.38-4.76,4.36-7.14,6.74-39.27,39.27-59.1,87.26-59.1,142.79,0,25.78,4.36,49.97,13.09,72.19-4.36-34.51,1.19-70.2,16.26-107.89,11.5-28.56,28.16-54.74,50.37-78.54,1.59-1.98,3.17-3.57,4.76-5.16Z"/>
    <path class="cls-1" d="M406.9,295.86c10.31-24.99,15.86-51.56,15.86-80.52,0-20.63-3.18-40.06-8.33-58.31-2.78,11.5-9.92,24.19-21.82,38.47-13.09,15.47-28.56,28.56-45.61,39.27-18.64,11.51-42.84,23.4-73.78,35.31-30.54,11.5-65.84,22.61-105.51,33.71-28.16,7.53-42.84,11.9-43.23,12.29-1.19.79.4,5.56,4.36,13.88,3.97,8.72,7.93,15.87,11.9,22.21,7.93,11.1,17.06,20.63,28.56,28.95,8.73,6.74,18.25,11.9,28.16,16.26,39.27,11.51,76.16,11.1,111.06-2.38,47.6-18.25,80.12-51.56,98.37-99.16Z"/>
    <path class="cls-1" d="M330.34,80.48c-15.87-17.85-36.09-26.57-61.48-26.57-31.73,0-62.27,14.67-90.43,44.42-11.5,11.9-21.42,24.99-29.75,39.27-1.98,3.18-3.57,5.95-5.55,9.12-9.92,19.04-17.85,40.46-23,63.86-3.17,13.48-5.16,27.37-5.95,42.04-.79,14.28,0,25.78,2.38,33.32l1.59,5.95,50.77-13.88c33.32-9.92,61.08-20.23,84.48-31.73,23.4-11.9,42.44-24.59,57.91-38.87,17.05-16.66,28.56-32.92,33.71-49.58,2.78-8.33,3.97-17.05,3.97-26.18v-.4c-.79-7.93-1.98-16.26-5.16-24.99-1.98-6.74-3.97-11.5-5.55-14.68-1.98-3.17-4.36-6.34-7.93-11.11Z"/>
    <g>
      <path class="cls-1" d="M102.28,95.95c20.23-21.81,42.04-38.08,65.45-48.78,15.47-7.54,30.94-12.69,46.41-15.07,15.07-2.38,32.53-3.17,51.57-1.59,14.68,1.59,26.97,3.57,37.68,5.95,8.73,2.38,19.04,6.35,30.94,11.5-32.92-23.01-71.4-34.51-114.23-34.51-52.36,0-97.97,17.45-136.05,52.36l18.24,30.14Z"/>
      <path class="cls-1" d="M330.34,80.48c-15.87-17.85-36.09-26.57-61.48-26.57-31.73,0-62.27,14.67-90.43,44.42-11.5,11.9-21.42,24.99-29.75,39.27-1.98,3.18-3.57,5.95-5.55,9.12l205.86-15.07v-.4c-.79-7.93-1.98-16.26-5.16-24.99-1.98-6.74-3.97-11.5-5.55-14.68-1.98-3.17-4.36-6.34-7.93-11.11Z"/>
    </g>
  </g>
</svg>